<svg width="121" height="39" viewBox="0 0 121 39" fill="none" xmlns="http://www.w3.org/2000/svg">
<path d="M107.047 38.6653H12.8745C5.7863 38.6653 0 29.9764 0 19.3326C0 8.68883 5.7863 0 12.8745 0H107.191C114.28 0 120.066 8.68883 120.066 19.3326C120.066 29.9764 114.28 38.6653 107.047 38.6653Z" fill="#5CDDBC"/>
<path d="M38.2059 15.196C38.1207 14.4763 37.775 13.9176 37.169 13.5199C36.5629 13.1221 35.8195 12.9233 34.9389 12.9233C34.2949 12.9233 33.7315 13.0275 33.2485 13.2358C32.7703 13.4441 32.3962 13.7306 32.1264 14.0952C31.8612 14.4597 31.7286 14.874 31.7286 15.3381C31.7286 15.7263 31.821 16.0601 32.0056 16.3395C32.195 16.6141 32.4365 16.8437 32.73 17.0284C33.0236 17.2083 33.3314 17.3575 33.6533 17.4758C33.9753 17.5895 34.2712 17.6818 34.5411 17.7528L36.0184 18.1506C36.3972 18.25 36.8186 18.3873 37.2826 18.5625C37.7514 18.7377 38.1988 18.9768 38.6249 19.2798C39.0558 19.5781 39.4109 19.9616 39.6903 20.4304C39.9696 20.8991 40.1093 21.4744 40.1093 22.1562C40.1093 22.9422 39.9033 23.6525 39.4914 24.2869C39.0842 24.9214 38.4876 25.4257 37.7016 25.7997C36.9204 26.1738 35.9711 26.3608 34.8536 26.3608C33.812 26.3608 32.91 26.1927 32.1477 25.8565C31.3901 25.5203 30.7935 25.0516 30.3579 24.4503C29.927 23.8489 29.6832 23.1506 29.6264 22.3551H31.4445C31.4919 22.9043 31.6765 23.3589 31.9985 23.7187C32.3252 24.0739 32.7371 24.339 33.2343 24.5142C33.7362 24.6846 34.276 24.7699 34.8536 24.7699C35.526 24.7699 36.1297 24.661 36.6647 24.4432C37.1997 24.2206 37.6235 23.9129 37.936 23.5199C38.2485 23.1221 38.4048 22.6581 38.4048 22.1278C38.4048 21.6449 38.2698 21.2519 37.9999 20.9489C37.73 20.6458 37.3749 20.3996 36.9346 20.2102C36.4943 20.0208 36.0184 19.8551 35.507 19.7131L33.7173 19.2017C32.5809 18.875 31.6813 18.4086 31.0184 17.8025C30.3555 17.1965 30.0241 16.4034 30.0241 15.4233C30.0241 14.6089 30.2443 13.8987 30.6846 13.2926C31.1297 12.6818 31.7263 12.2083 32.4744 11.8721C33.2272 11.5312 34.0676 11.3608 34.9957 11.3608C35.9332 11.3608 36.7665 11.5289 37.4957 11.865C38.2248 12.1965 38.8025 12.651 39.2286 13.2287C39.6595 13.8063 39.8868 14.4621 39.9104 15.196H38.2059ZM44.4541 19.5426V26.1051H42.778V11.5596H44.4541V16.9006H44.5962C44.8519 16.3371 45.2354 15.8897 45.7467 15.5582C46.2628 15.2221 46.9494 15.054 47.8064 15.054C48.5498 15.054 49.2008 15.2031 49.7595 15.5014C50.3182 15.795 50.7515 16.2471 51.0592 16.8579C51.3717 17.464 51.528 18.2358 51.528 19.1733V26.1051H49.8519V19.2869C49.8519 18.4204 49.6269 17.7505 49.1771 17.277C48.7321 16.7988 48.1142 16.5596 47.3234 16.5596C46.7742 16.5596 46.2818 16.6757 45.8462 16.9077C45.4153 17.1397 45.0744 17.4782 44.8234 17.9233C44.5772 18.3684 44.4541 18.9081 44.4541 19.5426ZM59.0262 26.3324C58.0414 26.3324 57.1773 26.098 56.4339 25.6293C55.6952 25.1605 55.1176 24.5047 54.7009 23.6619C54.289 22.8191 54.083 21.8343 54.083 20.7074C54.083 19.571 54.289 18.5791 54.7009 17.7315C55.1176 16.884 55.6952 16.2258 56.4339 15.7571C57.1773 15.2883 58.0414 15.054 59.0262 15.054C60.0111 15.054 60.8728 15.2883 61.6114 15.7571C62.3548 16.2258 62.9325 16.884 63.3444 17.7315C63.7611 18.5791 63.9694 19.571 63.9694 20.7074C63.9694 21.8343 63.7611 22.8191 63.3444 23.6619C62.9325 24.5047 62.3548 25.1605 61.6114 25.6293C60.8728 26.098 60.0111 26.3324 59.0262 26.3324ZM59.0262 24.8267C59.7743 24.8267 60.3898 24.6349 60.8728 24.2514C61.3558 23.8679 61.7132 23.3636 61.9452 22.7386C62.1773 22.1136 62.2933 21.4365 62.2933 20.7074C62.2933 19.9782 62.1773 19.2988 61.9452 18.669C61.7132 18.0393 61.3558 17.5303 60.8728 17.142C60.3898 16.7538 59.7743 16.5596 59.0262 16.5596C58.2781 16.5596 57.6626 16.7538 57.1796 17.142C56.6967 17.5303 56.3392 18.0393 56.1072 18.669C55.8752 19.2988 55.7592 19.9782 55.7592 20.7074C55.7592 21.4365 55.8752 22.1136 56.1072 22.7386C56.3392 23.3636 56.6967 23.8679 57.1796 24.2514C57.6626 24.6349 58.2781 24.8267 59.0262 24.8267ZM66.528 30.196V15.196H68.1473V16.929H68.3462C68.4693 16.7396 68.6397 16.4981 68.8575 16.2045C69.0801 15.9062 69.3973 15.6411 69.8092 15.4091C70.2259 15.1723 70.7894 15.054 71.4996 15.054C72.4181 15.054 73.2278 15.2836 73.9286 15.7429C74.6293 16.2022 75.1762 16.8532 75.5692 17.696C75.9622 18.5388 76.1587 19.5331 76.1587 20.679C76.1587 21.8343 75.9622 22.8357 75.5692 23.6832C75.1762 24.526 74.6317 25.1794 73.9357 25.6435C73.2396 26.1027 72.4371 26.3324 71.528 26.3324C70.8272 26.3324 70.2662 26.2164 69.8447 25.9844C69.4233 25.7476 69.099 25.4801 68.8717 25.1818C68.6445 24.8788 68.4693 24.6278 68.3462 24.429H68.2041V30.196H66.528ZM68.1757 20.6506C68.1757 21.4744 68.2965 22.2012 68.5379 22.831C68.7794 23.456 69.1322 23.946 69.5962 24.3011C70.0602 24.6515 70.6284 24.8267 71.3007 24.8267C72.0015 24.8267 72.5862 24.642 73.055 24.2727C73.5285 23.8987 73.8836 23.3968 74.1203 22.767C74.3618 22.1326 74.4825 21.4271 74.4825 20.6506C74.4825 19.8835 74.3642 19.1922 74.1274 18.5767C73.8954 17.9564 73.5427 17.4664 73.0692 17.1065C72.6004 16.7419 72.0109 16.5596 71.3007 16.5596C70.6189 16.5596 70.046 16.7325 69.582 17.0781C69.1179 17.419 68.7676 17.8972 68.5308 18.5128C68.2941 19.1236 68.1757 19.8362 68.1757 20.6506ZM78.7155 30.196V15.196H80.3348V16.929H80.5337C80.6568 16.7396 80.8272 16.4981 81.045 16.2045C81.2676 15.9062 81.5848 15.6411 81.9967 15.4091C82.4134 15.1723 82.9769 15.054 83.6871 15.054C84.6056 15.054 85.4153 15.2836 86.1161 15.7429C86.8168 16.2022 87.3637 16.8532 87.7567 17.696C88.1497 18.5388 88.3462 19.5331 88.3462 20.679C88.3462 21.8343 88.1497 22.8357 87.7567 23.6832C87.3637 24.526 86.8192 25.1794 86.1232 25.6435C85.4271 26.1027 84.6246 26.3324 83.7155 26.3324C83.0147 26.3324 82.4537 26.2164 82.0322 25.9844C81.6108 25.7476 81.2865 25.4801 81.0592 25.1818C80.832 24.8788 80.6568 24.6278 80.5337 24.429H80.3916V30.196H78.7155ZM80.3632 20.6506C80.3632 21.4744 80.484 22.2012 80.7254 22.831C80.9669 23.456 81.3197 23.946 81.7837 24.3011C82.2477 24.6515 82.8159 24.8267 83.4882 24.8267C84.189 24.8267 84.7737 24.642 85.2425 24.2727C85.716 23.8987 86.0711 23.3968 86.3078 22.767C86.5493 22.1326 86.67 21.4271 86.67 20.6506C86.67 19.8835 86.5517 19.1922 86.3149 18.5767C86.0829 17.9564 85.7302 17.4664 85.2567 17.1065C84.7879 16.7419 84.1984 16.5596 83.4882 16.5596C82.8064 16.5596 82.2335 16.7325 81.7695 17.0781C81.3054 17.419 80.9551 17.8972 80.7183 18.5128C80.4816 19.1236 80.3632 19.8362 80.3632 20.6506ZM91.5919 30.196C91.3078 30.196 91.0545 30.1723 90.832 30.125C90.6094 30.0824 90.4555 30.0398 90.3703 29.9971L90.7965 28.5199C91.2037 28.624 91.5635 28.6619 91.876 28.6335C92.1885 28.6051 92.4655 28.4654 92.707 28.2145C92.9532 27.9683 93.1781 27.5682 93.3817 27.0142L93.6942 26.1619L89.6601 15.196H91.4783L94.4896 23.8892H94.6033L97.6146 15.196H99.4328L94.8021 27.696C94.5938 28.2595 94.3358 28.7258 94.028 29.0952C93.7202 29.4692 93.3627 29.7462 92.9555 29.9261C92.5531 30.106 92.0985 30.196 91.5919 30.196Z" fill="#373845"/>
<path d="M20.3494 6.1051V30.9323" stroke="#2F323A" stroke-miterlimit="10"/>
</svg>
